{"title":"Gullu Dada Returns (2010) DVDRip XviD Hindi 1CDRip  ESubs","uid":5626520,"size":730613110,"categoryP":"video","categoryS":"movies","magnet":"?xt=urn:btih:215e3c6d986848d4b2685bb13a42839d03b66721&amp;dn=Gullu+Dada+Returns+%282010%29+DVDRip+XviD+Hindi+1CDRip++ESubs&amp;tr=udp%3A%2F%2Ftracker.openbittorrent.com%3A80&amp;tr=udp%3A%2F%2Fopen.demonii.com%3A1337&amp;tr=udp%3A%2F%2Ftracker.coppersurfer.tk%3A6969&amp;tr=udp%3A%2F%2Fexodus.desync.com%3A6969","seeders":1,"leechers":0,"uploader":"amanrulz","files":-1,"time":1276499227,"description":"mastitorrents.com &lt;a href=&quot;\nhttp://mastitorrents.com/forums/index.php&quot; rel=&quot;nofollow&quot; target=&quot;_NEW&quot;&gt;\nhttp://mastitorrents.com/forums/index.php&lt;/a&gt;\n\n\nInfo:\n\nGenre............: comedy\nYear.............: 2010\nIMDb Link........: http://www.imdb.com\nSource...........: DVD9 @ own (pirated from friend)\nRipper...........: Princeplain (Aamir) -DrC\nSample...........:\n\nGeneral\n\nFormat                           : AVI\nFormat/Info                      : Audio Video Interleave\nFile size                        : 697 MiB\nDuration                         : 1h 44mn\nOverall bit rate                 : 936 Kbps\nWriting library                  : MPlayer\n\nVideo\nFormat                           : MPEG-4 Visual\nFormat profile                   : Streaming Video@L1\nFormat settings, BVOP            : Yes\nFormat settings, QPel            : Yes\nFormat settings, GMC             : No warppoints\nFormat settings, Matrix          : Default\nCodec ID                         : XVID\nCodec ID/Hint                    : XviD\nDuration                         : 1h 44mn\nBit rate                         : 876 Kbps\nWidth                            : 608 pixels\nHeight                           : 256 pixels\nDisplay aspect ratio             : 2.35\nFrame rate                       : 23.976 fps\nResolution                       : 24 bits\nColorimetry                      : 4:2:0\nScan type                        : Progressive\nBits/(Pixel*Frame)               : 0.235\nStream size                      : 653 MiB (94%)\nWriting library                  : XviD 50\n\nAudio\nFormat                           : MPEG Audio\nFormat version                   : Version 2\nFormat profile                   : Layer 3\nCodec ID                         : 55\nCodec ID/Hint                    : MP3\nDuration                         : 1h 44mn\nBit rate mode                    : Variable\nBit rate                         : 47.2 Kbps\nMinimum bit rate                 : 48.0 Kbps\nChannel(s)                       : 2 channels\nSampling rate                    : 22.05 KHz\nResolution                       : 16 bits\nStream size                      : 35.1 MiB (5%)\nAlignment                        : Aligned on interleaves\nInterleave, duration             : 26 ms (0.63 video frame)\nInterleave, preload duration     : 542 ms\nWriting library                  : LAME3.98r\nEncoding settings                : ABR\n\nRipper Notes :-\n\nNjoy","torrent":{"xt":"urn:btih:215e3c6d986848d4b2685bb13a42839d03b66721","amp;dn":"Gullu+Dada+Returns+%282010%29+DVDRip+XviD+Hindi+1CDRip++ESubs","amp;tr":["udp%3A%2F%2Ftracker.openbittorrent.com%3A80","udp%3A%2F%2Fopen.demonii.com%3A1337","udp%3A%2F%2Ftracker.coppersurfer.tk%3A6969","udp%3A%2F%2Fexodus.desync.com%3A6969"],"infoHash":"215e3c6d986848d4b2685bb13a42839d03b66721","infoHashBuffer":{"type":"Buffer","data":[33,94,60,109,152,104,72,212,178,104,91,177,58,66,131,157,3,182,103,33]},"announce":[],"urlList":[]}}